<?xml version="1.0" encoding="UTF-8"?>
<svg id="Layer_3" data-name="Layer 3" xmlns="http://www.w3.org/2000/svg" viewBox="0 0 2305.2 1122.09">
  <path d="M0,1121.92V2h194.05v66.8h-79.13v986.33h79.13v66.8H0Z"/>
  <g>
    <path d="M392.47,542.39c-30.31,0-57.72-7.93-82.23-23.79-24.51-15.86-43.87-39.12-58.08-69.77-14.21-30.65-21.31-68.16-21.31-112.53s7.34-83.6,22.02-114.14c14.68-30.53,34.22-53.43,58.61-68.7,24.39-15.26,51.27-22.9,80.63-22.9,22.49,0,41.2,3.82,56.12,11.45,14.92,7.64,27,17.06,36.23,28.27,9.24,11.21,16.1,22.07,20.6,32.56h3.55V2.46h106.56v533.13h-104.79v-64.05h-5.33c-4.74,10.73-11.78,21.53-21.14,32.38-9.36,10.86-21.49,19.98-36.41,27.37-14.92,7.39-33.27,11.09-55.06,11.09ZM425.51,456.16c17.99,0,33.39-5.01,46.18-15.03s22.49-24.03,29.13-42.04c6.63-18.01,9.95-39.06,9.95-63.15s-3.26-45.38-9.77-63.15c-6.52-17.77-16.16-31.6-28.95-41.51-12.79-9.9-28.3-14.85-46.53-14.85s-34.4,5.13-47.07,15.39c-12.67,10.26-22.2,24.33-28.59,42.22-6.39,17.89-9.59,38.53-9.59,61.9s3.25,44.13,9.77,62.26c6.51,18.13,16.1,32.33,28.77,42.58,12.67,10.26,28.24,15.39,46.71,15.39Z"/>
    <path d="M816.95,543.46c-25.1,0-47.66-4.47-67.67-13.42-20.01-8.95-35.76-22.3-47.24-40.07-11.49-17.77-17.23-39.9-17.23-66.37,0-22.18,4.08-40.79,12.25-55.82,8.17-15.03,19.3-27.07,33.39-36.14,14.09-9.06,30.07-15.98,47.95-20.75,17.88-4.77,36.64-8.11,56.3-10.02,22.97-2.38,41.5-4.59,55.59-6.62,14.09-2.02,24.39-5.24,30.9-9.66,6.51-4.41,9.77-10.91,9.77-19.5v-1.79c0-11.45-2.37-21.11-7.1-28.98-4.74-7.87-11.78-13.89-21.14-18.07-9.36-4.17-20.66-6.26-33.92-6.26s-25.7,2.09-35.88,6.26c-10.18,4.18-18.47,9.72-24.86,16.64-6.39,6.92-11.13,14.67-14.21,23.26l-97.68-16.1c6.87-23.37,18.23-43.17,34.1-59.4,15.86-16.22,35.58-28.62,59.14-37.21,23.56-8.59,50.14-12.88,79.74-12.88,21.31,0,42.03,2.57,62.16,7.69,20.12,5.13,38.19,13.06,54.17,23.79,15.98,10.73,28.65,24.75,38.01,42.04,9.35,17.3,14.03,37.99,14.03,62.08v269.43h-100.88v-55.46h-3.55c-6.39,12.41-14.92,23.32-25.58,32.74-10.66,9.43-23.51,16.88-38.54,22.36-15.04,5.48-32.39,8.23-52.04,8.23ZM847.14,467.96c16.81,0,31.55-3.34,44.22-10.02,12.66-6.68,22.56-15.74,29.66-27.19,7.1-11.45,10.66-24.21,10.66-38.29v-43.29c-3.08,2.39-7.81,4.53-14.21,6.44-6.39,1.91-13.5,3.58-21.31,5.01-7.81,1.43-15.51,2.74-23.09,3.94-7.58,1.2-14.33,2.15-20.25,2.86-13.03,1.91-24.51,5.01-34.46,9.3s-17.64,9.96-23.09,17c-5.45,7.04-8.17,16.05-8.17,27.01,0,10.26,2.6,18.91,7.81,25.94,5.21,7.04,12.31,12.34,21.31,15.92,9,3.58,19.3,5.37,30.9,5.37Z"/>
    <path d="M1235.03,307.46v236h-106.56V135.66h100.52l1.78,101.77h-6.39c10.42-34.04,26.22-60.37,47.42-78.97,21.19-18.6,48.6-27.9,82.23-27.9,27.47,0,51.44,6.14,71.93,18.42,20.48,12.28,36.35,29.91,47.6,52.89,11.24,22.98,16.87,50.4,16.87,82.25v259.34h-106.56v-240.38c0-25.29-6.34-45.1-19-59.46-12.67-14.35-30.25-21.52-52.75-21.52-14.92,0-28.24,3.35-39.96,10.03-11.72,6.69-20.84,16.36-27.35,29-6.52,12.65-9.77,28.09-9.77,46.32Z"/>
    <path d="M1576.39,224.3l31.26-221.84h106.56l-65.36,221.84h-72.46Z"/>
    <path d="M1896.79,543.46c-31.97,0-60.27-4.6-84.9-13.78-24.63-9.18-44.76-22.54-60.39-40.07-15.63-17.53-25.7-38.7-30.19-63.51l99.1-17.17c5.21,18.61,14.32,32.56,27.35,41.86,13.02,9.3,30.43,13.95,52.22,13.95,20.36,0,36.41-3.87,48.13-11.63,11.72-7.75,17.58-17.59,17.58-29.52,0-10.49-4.21-19.08-12.61-25.76-8.41-6.68-21.26-11.81-38.54-15.39l-68.56-14.31c-38.36-7.87-67.02-21.29-85.96-40.25-18.95-18.96-28.42-43.35-28.42-73.17,0-25.76,6.98-47.88,20.96-66.37,13.97-18.48,33.39-32.74,58.25-42.76,24.86-10.02,54.11-15.03,87.74-15.03,31.26,0,58.37,4.36,81.34,13.06,22.97,8.71,41.56,21.05,55.77,37.03,14.21,15.98,23.68,34.83,28.42,56.53l-94.49,16.82c-4.03-13.6-11.78-24.74-23.27-33.45-11.49-8.7-26.94-13.06-46.36-13.06-17.53,0-32.21,3.7-44.05,11.09-11.84,7.4-17.76,17.3-17.76,29.7,0,10.02,3.85,18.49,11.54,25.4,7.69,6.92,20.9,12.29,39.61,16.1l71.4,14.31c38.36,7.87,66.9,20.7,85.61,38.46,18.7,17.77,28.06,40.97,28.06,69.59,0,26.24-7.58,49.2-22.73,68.88-15.16,19.68-36.05,35.01-62.69,45.98-26.64,10.97-57.37,16.46-92.18,16.46Z"/>
  </g>
  <g>
    <path d="M385.95,1121.46c-31.95,0-59.5-11.29-82.65-33.9-23.16-22.59-41.02-54.07-53.59-94.44-12.57-40.36-18.86-87.35-18.86-140.96s6.28-101.53,18.86-141.9c12.57-40.36,30.43-71.84,53.59-94.44,23.15-22.59,50.71-33.9,82.65-33.9,18.71,0,36.01,4.06,51.89,12.16,15.88,8.11,29.96,19.64,42.25,34.6,12.29,14.96,22.4,33.19,30.34,54.7,7.94,21.51,13.42,45.67,16.45,72.47l-79.11,24.31c-1.7-13.71-4.35-25.95-7.94-36.7-3.59-10.75-7.94-19.94-13.04-27.58-5.1-7.63-11.01-13.48-17.72-17.53-6.71-4.05-14.13-6.08-22.26-6.08-15.13,0-27.84,6.71-38.14,20.1-10.3,13.41-18.05,32.11-23.25,56.1-5.2,24-7.8,51.74-7.8,83.22s2.6,58.29,7.8,82.29c5.2,24,12.95,42.86,23.25,56.57,10.3,13.72,23.01,20.57,38.14,20.57,8.13,0,15.59-2.1,22.4-6.31s12.85-10.29,18.15-18.23c5.29-7.95,9.73-17.53,13.33-28.75,3.59-11.22,6.14-23.84,7.66-37.87l79.11,23.84c-3.03,27.74-8.51,52.44-16.45,74.1-7.94,21.67-18.05,40.29-30.34,55.87-12.29,15.59-26.42,27.43-42.39,35.53-15.98,8.1-33.41,12.16-52.31,12.16Z"/>
    <path d="M727.62,1121.46c-31.76,0-59.26-11.29-82.51-33.9-23.25-22.59-41.16-54.07-53.73-94.44-12.57-40.36-18.86-87.35-18.86-140.96s6.28-101.53,18.86-141.9c12.57-40.36,30.48-71.84,53.73-94.44,23.25-22.59,50.75-33.9,82.51-33.9s59.49,11.3,82.65,33.9c23.15,22.6,41.02,54.08,53.59,94.44,12.57,40.37,18.86,87.66,18.86,141.9s-6.29,100.6-18.86,140.96c-12.57,40.37-30.44,71.85-53.59,94.44-23.16,22.6-50.71,33.9-82.65,33.9ZM727.62,1011.12c15.12,0,27.79-6.93,37.99-20.81,10.21-13.87,17.86-32.88,22.97-57.04,5.1-24.15,7.66-51.35,7.66-81.58s-2.55-58.28-7.66-82.29c-5.1-24-12.76-42.85-22.97-56.57-10.21-13.71-22.87-20.57-37.99-20.57s-27.74,6.86-37.85,20.57c-10.11,13.72-17.72,32.57-22.83,56.57-5.1,24-7.66,51.43-7.66,82.29s2.55,57.43,7.66,81.58c5.1,24.16,12.71,43.17,22.83,57.04,10.11,13.87,22.73,20.81,37.85,20.81Z"/>
    <path d="M941.97,1122.09v-541h82.23v101.09h3.4c5.86-33.04,15.64-57.98,29.35-74.83,13.7-16.84,29.44-25.26,47.21-25.26,4.35,0,9.07.4,14.18,1.19,5.1.8,9.54,1.99,13.33,3.57v127.73c-3.78-2.22-9.26-3.97-16.45-5.24-7.19-1.27-13.99-1.91-20.41-1.91-12.86,0-24.48,4.69-34.88,14.06-10.4,9.38-18.48,22.4-24.24,39.08-5.77,16.68-8.65,36.15-8.65,58.38v303.12h-85.06Z"/>
    <path d="M1471.63,782.29v339.17h-85.07v-314.35c0-33.07-5.06-58.99-15.17-77.77-10.11-18.76-24.14-28.14-42.1-28.14-11.91,0-22.55,4.36-31.9,13.11-9.36,8.76-16.64,21.4-21.83,37.92-5.2,16.54-7.8,36.73-7.8,60.59v308.64h-85.06v-540.37h80.24l1.17,117.29c8.1-33.62,19.09-60.44,32.99-80.44,16.92-24.33,38.8-36.49,65.64-36.49,21.93,0,41.06,8.04,57.41,24.1,16.35,16.05,29.02,39.11,38,69.17,8.97,30.04,13.47,65.91,13.47,107.56Z"/>
    <path d="M1832.01,847.03c0-44.89-3.83-83.85-11.48-116.89-7.66-33.03-18.3-60.55-31.9-82.52-13.61-21.97-29.41-38.41-47.36-49.31-17.95-10.92-37.33-16.37-58.12-16.37-30.82,0-57.66,11.38-80.52,34.13-22.88,22.76-40.55,54.39-53.03,94.9-12.47,40.52-18.71,87.74-18.71,141.66s6.27,102.85,18.85,143.07c12.56,40.2,30.57,71.22,54.01,93.04,23.44,21.82,51.32,32.73,83.65,32.73,24.76,0,46.64-5.92,65.63-17.76,19-11.84,34.83-28.6,47.49-50.27,12.67-21.66,21.55-46.82,26.66-75.5l-77.13-23.84c-3.03,13.4-7.42,24.7-13.18,33.9-5.77,9.19-12.72,16.12-20.85,20.79-8.12,4.68-17.2,7.02-27.22,7.02-14.75,0-27.64-5.15-38.69-15.43-11.06-10.29-19.67-25.71-25.81-46.28-5.57-18.66-8.61-41.24-9.12-67.81h216.81v-39.26ZM1615.56,798.4c.96-17.71,3.45-33.83,7.48-48.4,5.29-19.17,13.09-34.36,23.39-45.58,10.31-11.22,22.83-16.84,37.58-16.84s26.79,5.54,36.71,16.6c9.93,11.08,17.4,26.65,22.4,46.76,3.51,14.09,5.79,29.91,6.84,47.46h-134.4Z"/>
    <path d="M1890.14,1121.83v-540.74h82.23v100.22h3.4c5.86-33.09,15.64-58.06,29.35-74.93,13.7-16.86,24.21-25.29,41.98-25.29,4.35,0,9.07.4,14.18,1.19,5.1.8,9.54,1.99,13.33,3.58v127.91c-3.78-2.22-9.26-3.97-16.45-5.25-7.19-1.27-13.99-1.91-20.41-1.91-12.86,0-19.25,4.7-29.65,14.08-10.4,9.39-18.48,22.43-24.24,39.14-5.77,16.7-8.65,36.2-8.65,58.46v303.54h-85.06Z"/>
  </g>
  <path d="M2110.75,1121.92v-66.8h79.13V66.8h-79.13V0h194.45v1121.92h-194.45Z"/>
</svg>